<svg width="610" height="186" viewBox="0 0 610 186" fill="none" xmlns="http://www.w3.org/2000/svg">
<path d="M286.459 84.0063V57.7608H259.856V67.3127H275.836V79.0072C273.931 80.4355 271.67 81.596 269.051 82.4887C266.492 83.3219 263.725 83.7385 260.749 83.7385C257.535 83.7385 254.619 83.1731 252 82.0424C249.441 80.9116 247.21 79.3643 245.305 77.4003C243.46 75.3768 242.032 72.9963 241.02 70.2587C240.008 67.521 239.503 64.5453 239.503 61.3316C239.503 58.2964 240.008 55.4397 241.02 52.7616C242.091 50.0835 243.52 47.7327 245.305 45.7092C247.15 43.6858 249.293 42.1087 251.733 40.9779C254.232 39.7876 256.91 39.1925 259.767 39.1925C261.731 39.1925 263.516 39.371 265.123 39.7281C266.79 40.0257 268.307 40.472 269.676 41.0672C271.045 41.6028 272.354 42.2872 273.604 43.1204C274.854 43.9536 276.074 44.8761 277.264 45.8878L284.227 37.5856C282.62 36.2168 280.954 35.0265 279.228 34.0148C277.562 32.9436 275.776 32.0508 273.872 31.3367C271.967 30.6225 269.884 30.0869 267.623 29.7298C265.421 29.3132 262.951 29.1049 260.213 29.1049C255.512 29.1049 251.167 29.9679 247.18 31.6938C243.252 33.4197 239.86 35.7705 237.003 38.7461C234.146 41.6623 231.915 45.0844 230.308 49.0123C228.76 52.9402 227.987 57.1061 227.987 61.5101C227.987 66.0927 228.76 70.3479 230.308 74.2758C231.855 78.2038 234.027 81.6258 236.824 84.542C239.681 87.3986 243.103 89.6601 247.091 91.3265C251.078 92.9334 255.512 93.7368 260.392 93.7368C263.13 93.7368 265.748 93.469 268.248 92.9334C270.747 92.4573 273.068 91.7729 275.211 90.8802C277.413 89.9875 279.436 88.946 281.281 87.7557C283.186 86.5654 284.912 85.3156 286.459 84.0063Z" fill="white"/>
<path d="M310.31 74.7222C310.31 71.6275 310.697 68.9196 311.471 66.5986C312.244 64.218 313.345 62.2541 314.774 60.7067C316.202 59.1594 317.898 57.9988 319.862 57.2252C321.826 56.4515 323.998 56.0646 326.379 56.0646H327.004V44.638C322.838 44.4595 319.386 45.4414 316.648 47.5839C313.911 49.7264 311.798 52.5831 310.31 56.1539V45.5307H299.508V92.6656H310.31V74.7222Z" fill="white"/>
<path d="M373.665 92.6656V64.7239C373.665 58.4154 371.969 53.5353 368.577 50.0835C365.184 46.5722 359.977 44.8165 352.954 44.8165C349.086 44.8165 345.783 45.1736 343.045 45.8878C340.308 46.602 337.63 47.5542 335.011 48.7445L337.957 57.4037C340.099 56.511 342.212 55.7968 344.295 55.2612C346.378 54.7256 348.759 54.4578 351.437 54.4578C355.186 54.4578 358.043 55.3207 360.007 57.0466C362.03 58.7725 363.042 61.2721 363.042 64.5453V65.7059C361.197 65.1107 359.263 64.6346 357.239 64.2775C355.275 63.9205 352.865 63.7419 350.008 63.7419C347.271 63.7419 344.712 64.0692 342.331 64.7239C340.01 65.319 337.987 66.2415 336.261 67.4913C334.594 68.7411 333.285 70.3182 332.333 72.2226C331.381 74.1271 330.905 76.3588 330.905 78.9179V79.0965C330.905 81.477 331.351 83.5897 332.244 85.4347C333.196 87.2201 334.416 88.7377 335.904 89.9875C337.451 91.1777 339.236 92.0704 341.26 92.6656C343.283 93.3202 345.426 93.6476 347.687 93.6476C351.258 93.6476 354.293 92.9929 356.793 91.6836C359.293 90.3743 361.346 88.7674 362.953 86.863V92.6656H373.665ZM363.221 75.6149C363.221 77.1027 362.893 78.4716 362.239 79.7213C361.643 80.9116 360.78 81.9531 359.65 82.8458C358.519 83.679 357.18 84.3337 355.632 84.8098C354.145 85.2859 352.508 85.5239 350.723 85.5239C348.164 85.5239 345.991 84.9288 344.206 83.7385C342.48 82.5483 341.617 80.8224 341.617 78.5608V78.3823C341.617 75.9422 342.569 74.0675 344.474 72.7582C346.378 71.4489 349.026 70.7943 352.419 70.7943C354.502 70.7943 356.466 70.9728 358.311 71.3299C360.215 71.687 361.852 72.1333 363.221 72.669V75.6149Z" fill="white"/>
<path d="M411.597 54.3685L384.37 85.2561V92.6656H425.345V83.8278H398.118L425.345 52.9402V45.5307H385.352V54.3685H411.597Z" fill="white"/>
<path d="M448.249 38.2998V28.0337H436.644V38.2998H448.249ZM447.892 92.6656V45.5307H437.091V92.6656H447.892Z" fill="white"/>
<path d="M470.222 72.9368H504.859C504.918 72.4012 504.948 71.8953 504.948 71.4192C505.008 70.9431 505.037 70.467 505.037 69.9909C505.037 66.5986 504.561 63.3551 503.609 60.2604C502.657 57.1656 501.228 54.4578 499.324 52.1367C497.479 49.8157 495.128 47.9708 492.272 46.602C489.474 45.2331 486.201 44.5487 482.452 44.5487C479.06 44.5487 475.965 45.2034 473.168 46.5127C470.371 47.822 467.93 49.6074 465.848 51.8689C463.824 54.0709 462.247 56.6598 461.116 59.6355C459.985 62.6111 459.42 65.7951 459.42 69.1874C459.42 72.8773 460.045 76.2398 461.295 79.275C462.544 82.2507 464.241 84.8098 466.383 86.9523C468.585 89.0948 471.144 90.7612 474.06 91.9514C477.036 93.1417 480.22 93.7368 483.612 93.7368C487.957 93.7368 491.676 92.9334 494.771 91.3265C497.925 89.7197 500.633 87.5772 502.895 84.899L496.557 79.275C494.652 81.1199 492.718 82.5185 490.754 83.4707C488.79 84.4229 486.469 84.899 483.791 84.899C480.28 84.899 477.304 83.8873 474.864 81.8638C472.424 79.7809 470.876 76.8052 470.222 72.9368ZM470.132 65.7951C470.609 62.1053 471.918 59.1296 474.06 56.8681C476.262 54.547 479.03 53.3865 482.363 53.3865C484.148 53.3865 485.725 53.7138 487.094 54.3685C488.522 55.0231 489.742 55.9159 490.754 57.0466C491.766 58.1179 492.569 59.4272 493.164 60.9745C493.759 62.4624 494.146 64.0692 494.325 65.7951H470.132Z" fill="white"/>
<path d="M527.312 92.6656V27.498H516.51V92.6656H527.312Z" fill="white"/>
<path d="M552.855 92.6656V27.498H542.053V92.6656H552.855Z" fill="white"/>
<path d="M575.184 72.9368H609.821C609.881 72.4012 609.911 71.8953 609.911 71.4192C609.97 70.9431 610 70.467 610 69.9909C610 66.5986 609.524 63.3551 608.572 60.2604C607.619 57.1656 606.191 54.4578 604.287 52.1367C602.442 49.8157 600.091 47.9708 597.234 46.602C594.437 45.2331 591.164 44.5487 587.415 44.5487C584.022 44.5487 580.928 45.2034 578.13 46.5127C575.333 47.822 572.893 49.6074 570.81 51.8689C568.787 54.0709 567.21 56.6598 566.079 59.6355C564.948 62.6111 564.383 65.7951 564.383 69.1874C564.383 72.8773 565.008 76.2398 566.257 79.275C567.507 82.2507 569.203 84.8098 571.346 86.9523C573.548 89.0948 576.107 90.7612 579.023 91.9514C581.999 93.1417 585.183 93.7368 588.575 93.7368C592.92 93.7368 596.639 92.9334 599.734 91.3265C602.888 89.7197 605.596 87.5772 607.857 84.899L601.519 79.275C599.615 81.1199 597.681 82.5185 595.717 83.4707C593.753 84.4229 591.432 84.899 588.754 84.899C585.242 84.899 582.267 83.8873 579.827 81.8638C577.386 79.7809 575.839 76.8052 575.184 72.9368ZM575.095 65.7951C575.571 62.1053 576.881 59.1296 579.023 56.8681C581.225 54.547 583.992 53.3865 587.325 53.3865C589.111 53.3865 590.688 53.7138 592.057 54.3685C593.485 55.0231 594.705 55.9159 595.717 57.0466C596.728 58.1179 597.532 59.4272 598.127 60.9745C598.722 62.4624 599.109 64.0692 599.288 65.7951H575.095Z" fill="white"/>
<path d="M251.447 121.553H227.987V155.159H231.671V140.516H249.349V137.06H231.671V125.058H251.447V121.553Z" fill="#F37020"/>
<path d="M261.58 145.269C261.58 143.413 261.829 141.78 262.327 140.372C262.824 138.932 263.508 137.732 264.379 136.772C265.249 135.811 266.26 135.091 267.41 134.611C268.592 134.131 269.836 133.891 271.142 133.891H271.422V129.907C270.271 129.875 269.198 130.019 268.203 130.339C267.208 130.659 266.291 131.139 265.452 131.779C264.612 132.387 263.866 133.123 263.213 133.987C262.56 134.851 262.016 135.795 261.58 136.82V130.339H257.989V155.159H261.58V145.269Z" fill="#F37020"/>
<path d="M299.491 142.725C299.491 140.964 299.18 139.3 298.558 137.732C297.936 136.164 297.066 134.803 295.946 133.651C294.827 132.467 293.49 131.539 291.935 130.867C290.412 130.163 288.748 129.811 286.945 129.811C285.11 129.811 283.415 130.163 281.861 130.867C280.337 131.539 279.015 132.467 277.896 133.651C276.777 134.835 275.906 136.228 275.284 137.828C274.662 139.396 274.351 141.06 274.351 142.821C274.351 144.581 274.662 146.245 275.284 147.813C275.906 149.382 276.777 150.758 277.896 151.942C279.015 153.094 280.337 154.022 281.861 154.726C283.384 155.399 285.048 155.735 286.851 155.735C288.655 155.735 290.334 155.399 291.889 154.726C293.443 154.022 294.78 153.078 295.9 151.894C297.019 150.71 297.89 149.334 298.512 147.765C299.165 146.165 299.491 144.485 299.491 142.725ZM295.806 142.821C295.806 144.165 295.589 145.429 295.153 146.613C294.718 147.765 294.112 148.774 293.334 149.638C292.557 150.502 291.624 151.19 290.536 151.702C289.448 152.182 288.251 152.422 286.945 152.422C285.67 152.422 284.488 152.166 283.4 151.654C282.311 151.142 281.363 150.454 280.555 149.59C279.777 148.726 279.155 147.701 278.689 146.517C278.254 145.333 278.036 144.069 278.036 142.725C278.036 141.38 278.254 140.132 278.689 138.98C279.124 137.796 279.715 136.772 280.461 135.908C281.239 135.011 282.172 134.323 283.26 133.843C284.348 133.331 285.545 133.075 286.851 133.075C288.126 133.075 289.308 133.331 290.396 133.843C291.484 134.355 292.433 135.059 293.241 135.956C294.05 136.82 294.672 137.844 295.107 139.028C295.573 140.212 295.806 141.476 295.806 142.821Z" fill="#F37020"/>
<path d="M309.588 140.948C309.588 139.796 309.759 138.74 310.101 137.78C310.474 136.82 310.988 136.004 311.641 135.331C312.294 134.627 313.055 134.099 313.926 133.747C314.828 133.363 315.792 133.171 316.818 133.171C318.963 133.171 320.611 133.843 321.762 135.187C322.912 136.532 323.487 138.356 323.487 140.66V155.159H327.079V139.748C327.079 138.276 326.861 136.932 326.426 135.715C326.022 134.499 325.415 133.459 324.607 132.595C323.83 131.699 322.866 131.011 321.715 130.531C320.596 130.051 319.305 129.811 317.844 129.811C315.761 129.811 314.066 130.291 312.76 131.251C311.454 132.179 310.397 133.315 309.588 134.659V130.339H305.997V155.159H309.588V140.948Z" fill="#F37020"/>
<path d="M339.589 133.603H347.238V130.339H339.589V122.849H335.997V130.339H332.639V133.603H335.997V148.581C335.997 149.83 336.168 150.902 336.51 151.798C336.852 152.694 337.319 153.43 337.91 154.006C338.531 154.55 339.262 154.95 340.102 155.207C340.941 155.463 341.843 155.591 342.807 155.591C343.678 155.591 344.455 155.495 345.139 155.303C345.854 155.143 346.523 154.886 347.145 154.534V151.366C346.523 151.686 345.932 151.91 345.372 152.038C344.844 152.166 344.268 152.23 343.646 152.23C342.434 152.23 341.454 151.926 340.708 151.318C339.962 150.71 339.589 149.638 339.589 148.101V133.603Z" fill="#F37020"/>
<path d="M365.582 142.677V138.788H352.615V142.677H365.582Z" fill="#F37020"/>
<path d="M396.841 121.553H373.241V155.159H397.074V151.702H376.925V139.94H394.742V136.484H376.925V125.01H396.841V121.553Z" fill="#F37020"/>
<path d="M407.472 140.948C407.472 139.796 407.643 138.74 407.985 137.78C408.358 136.82 408.871 136.004 409.524 135.331C410.177 134.627 410.939 134.099 411.809 133.747C412.711 133.363 413.675 133.171 414.701 133.171C416.847 133.171 418.495 133.843 419.645 135.187C420.796 136.532 421.371 138.356 421.371 140.66V155.159H424.962V139.748C424.962 138.276 424.745 136.932 424.309 135.715C423.905 134.499 423.299 133.459 422.49 132.595C421.713 131.699 420.749 131.011 419.599 130.531C418.479 130.051 417.189 129.811 415.727 129.811C413.644 129.811 411.949 130.291 410.643 131.251C409.337 132.179 408.28 133.315 407.472 134.659V130.339H403.88V155.159H407.472V140.948Z" fill="#F37020"/>
<path d="M455.569 155.159V120.113H451.978V135.091C451.511 134.387 450.967 133.715 450.345 133.075C449.754 132.435 449.086 131.875 448.34 131.395C447.593 130.915 446.754 130.531 445.821 130.243C444.888 129.955 443.862 129.811 442.743 129.811C441.281 129.811 439.866 130.115 438.498 130.723C437.13 131.299 435.902 132.147 434.814 133.267C433.725 134.355 432.855 135.699 432.202 137.3C431.549 138.9 431.222 140.724 431.222 142.773C431.222 144.821 431.549 146.645 432.202 148.245C432.855 149.846 433.725 151.206 434.814 152.326C435.902 153.414 437.13 154.246 438.498 154.822C439.866 155.399 441.281 155.687 442.743 155.687C443.862 155.687 444.873 155.543 445.774 155.255C446.707 154.966 447.547 154.566 448.293 154.054C449.039 153.542 449.708 152.95 450.299 152.278C450.92 151.606 451.48 150.902 451.978 150.166V155.159H455.569ZM452.118 142.725C452.118 144.165 451.869 145.493 451.371 146.709C450.905 147.893 450.252 148.902 449.412 149.734C448.604 150.566 447.671 151.222 446.614 151.702C445.588 152.15 444.515 152.374 443.396 152.374C442.245 152.374 441.157 152.15 440.131 151.702C439.105 151.254 438.203 150.614 437.425 149.782C436.648 148.918 436.026 147.893 435.56 146.709C435.124 145.525 434.907 144.197 434.907 142.725C434.907 141.22 435.124 139.876 435.56 138.692C436.026 137.476 436.633 136.468 437.379 135.667C438.156 134.835 439.058 134.211 440.084 133.795C441.11 133.347 442.214 133.123 443.396 133.123C444.515 133.123 445.588 133.363 446.614 133.843C447.671 134.291 448.604 134.931 449.412 135.763C450.252 136.596 450.905 137.604 451.371 138.788C451.869 139.972 452.118 141.284 452.118 142.725Z" fill="#F37020"/>
<path d="M29.5538 86.7869V94.9944L65.8037 111.789V102.974L38.6733 90.8147L65.8037 78.7314V69.9919L47.6788 78.3894L29.5538 86.7869Z" fill="#F37020"/>
<path d="M105.295 56.9966L70.9447 127.369H78.9242L113.274 56.9966H105.295Z" fill="#F37020"/>
<path d="M155.793 94.9944V86.7869L137.668 78.3894L119.543 69.9919V78.8074L146.673 90.9667L119.543 103.05V111.789L155.793 94.9944Z" fill="#F37020"/>
<path fill-rule="evenodd" clip-rule="evenodd" d="M177.323 8.44395H8.44395V177.323H177.323V8.44395ZM0 0V185.767H185.767V0H0Z" fill="white"/>
</svg>
